# xmcd
#
# Track frame offsets:
#	150
#	30826
#	51011
#	89957
#	120892
#	142648
#	184905
#	210364
#	285837
#
# Disc length: 4315 seconds
#
# Revision: 1
# Processed by: cddbd v1.5.2PL0 Copyright (c) Steve Scherf et al.
# Submitted via: audiograbber 1.83.01
#
DISCID=6a10d909
DTITLE=Grateful Dead - 71-02-20 Capitol Theatre, Port Chester NY
DYEAR=1900
DGENRE=
TTITLE0=Casey Jones
TTITLE1=Me and My Uncle
TTITLE2=Hard To Handle
TTITLE3=Bertha
TTITLE4=Playing In The Band
TTITLE5=Bird Song
TTITLE6=Big Boss Man
TTITLE7=Cryptical Envelopment > Drums > The Other One
TTITLE8=Wharf Rat
EXTD=
EXTT0=
EXTT1=
EXTT2=
EXTT3=
EXTT4=
EXTT5=
EXTT6=
EXTT7=
EXTT8=
PLAYORDER=
